<svg width="570" height="94" viewBox="0 0 570 94" xmlns="http://www.w3.org/2000/svg"><path d="M562.262 75.82l.082 1.465c.938-1.133 2.168-1.699 3.691-1.699 2.641 0 3.985 1.512 4.032 4.535V88.5h-2.848v-8.215c0-.805-.174-1.4-.521-1.787-.348-.387-.916-.58-1.706-.58-1.148 0-2.003.519-2.566 1.559V88.5h-2.848V75.82zm-17.08 6.223c0-1.242.246-2.361.738-3.357.493-.997 1.184-1.762 2.075-2.297.89-.535 1.914-.803 3.07-.803 1.711 0 3.1.551 4.166 1.652 1.066 1.102 1.643 2.563 1.729 4.383l.011.668c0 1.25-.24 2.367-.72 3.352-.481.984-1.168 1.746-2.063 2.285-.894.539-1.928.808-3.1.808-1.789 0-3.22-.595-4.294-1.787-1.075-1.191-1.612-2.779-1.612-4.763zm2.848.246c0 1.305.269 2.326.808 3.065.54.738 1.29 1.107 2.25 1.107.961 0 1.709-.375 2.245-1.125.535-.75.802-1.848.802-3.293 0-1.281-.275-2.297-.826-3.047-.551-.75-1.299-1.125-2.244-1.125-.93 0-1.668.369-2.215 1.108-.547.738-.82 1.841-.82 3.31zm-5.654 6.211h-2.848V75.82h2.848zm-3.024-15.973c0-.437.139-.8.416-1.089.278-.29.674-.434 1.19-.434.515 0 .914.144 1.195.434.281.289.422.652.422 1.089 0 .43-.141.787-.422 1.073-.281.285-.68.427-1.195.427-.516 0-.912-.142-1.19-.427-.277-.286-.416-.643-.416-1.073zm-4.658.211v3.082h2.239v2.11h-2.239v7.078c0 .484.096.834.288 1.049.191.214.533.322 1.025.322.328 0 .66-.039.996-.117v2.203c-.648.18-1.273.269-1.875.269-2.188 0-3.281-1.207-3.281-3.621V77.93h-2.086v-2.11h2.086v-3.082zM525.478 88.5c-.125-.242-.235-.637-.328-1.184-.907.946-2.016 1.418-3.328 1.418-1.274 0-2.313-.363-3.118-1.089-.804-.727-1.207-1.625-1.207-2.696 0-1.351.502-2.388 1.506-3.111 1.004-.723 2.44-1.084 4.307-1.084h1.746v-.832c0-.656-.184-1.182-.551-1.576-.367-.395-.926-.592-1.676-.592-.648 0-1.179.162-1.593.486-.414.324-.621.737-.621 1.237h-2.848c0-.696.23-1.346.691-1.952.461-.605 1.088-1.08 1.881-1.423.793-.344 1.678-.516 2.654-.516 1.485 0 2.668.373 3.551 1.119s1.336 1.795 1.36 3.147v5.718c0 1.141.16 2.051.48 2.731v.199zm-3.129-2.051c.562 0 1.092-.136 1.588-.41.496-.273.869-.641 1.119-1.101v-2.391h-1.535c-1.055 0-1.848.183-2.379.551-.531.367-.797.886-.797 1.558 0 .547.182.983.545 1.307.363.324.85.486 1.459.486zm-13.717-.222h6.75V88.5h-10.289v-1.863l6.434-8.52h-6.316V75.82h9.925v1.805zm-6.38 2.273h-2.848V75.82h2.848zm-3.024-15.973c0-.437.139-.8.416-1.089.278-.29.674-.434 1.19-.434.515 0 .914.144 1.195.434.281.289.422.652.422 1.089 0 .43-.141.787-.422 1.073-.281.285-.68.427-1.195.427-.516 0-.912-.142-1.19-.427-.277-.286-.416-.643-.416-1.073zm-4.658.211v3.082h2.239v2.11h-2.239v7.078c0 .484.096.834.287 1.049.192.214.534.322 1.026.322.328 0 .66-.039.996-.117v2.203c-.649.18-1.274.269-1.875.269-2.188 0-3.281-1.207-3.281-3.621V77.93h-2.086v-2.11h2.086v-3.082zm-11.103 15.996c-1.805 0-3.268-.568-4.389-1.705-1.121-1.136-1.681-2.65-1.681-4.541v-.351c0-1.266.244-2.397.732-3.393s1.174-1.771 2.057-2.326c.883-.555 1.867-.832 2.953-.832 1.726 0 3.06.551 4.002 1.652.941 1.102 1.412 2.66 1.412 4.676v1.149h-8.285c.086 1.046.435 1.875 1.049 2.484.613.609 1.384.914 2.314.914 1.305 0 2.367-.527 3.188-1.582l1.535 1.465c-.508.758-1.186 1.345-2.033 1.763-.848.418-1.799.627-2.854.627zm-.34-10.863c-.781 0-1.412.274-1.892.82-.481.547-.787 1.309-.92 2.286h5.425v-.211c-.062-.954-.316-1.674-.761-2.162-.446-.489-1.063-.733-1.852-.733zm-16.189-2.051l.082 1.465c.938-1.133 2.168-1.699 3.691-1.699 2.641 0 3.985 1.512 4.032 4.535V88.5h-2.848v-8.215c0-.805-.174-1.4-.521-1.787-.348-.387-.916-.58-1.706-.58-1.148 0-2.003.519-2.566 1.559V88.5h-2.848V75.82zm-17.08 6.223c0-1.242.246-2.361.738-3.357.493-.997 1.184-1.762 2.075-2.297.89-.535 1.914-.803 3.07-.803 1.711 0 3.1.551 4.166 1.652 1.066 1.102 1.643 2.563 1.728 4.383l.012.668c0 1.25-.24 2.367-.72 3.352-.481.984-1.168 1.746-2.063 2.285-.895.539-1.928.808-3.1.808-1.789 0-3.22-.595-4.295-1.787-1.074-1.191-1.611-2.779-1.611-4.763zm2.848.246c0 1.305.269 2.326.808 3.065.539.738 1.289 1.107 2.25 1.107.961 0 1.709-.375 2.245-1.125.535-.75.802-1.848.802-3.293 0-1.281-.275-2.297-.826-3.047-.551-.75-1.299-1.125-2.244-1.125-.93 0-1.668.369-2.215 1.108-.547.738-.82 1.841-.82 3.31zm-20.76-6.469l.082 1.325c.891-1.04 2.11-1.559 3.657-1.559 1.695 0 2.855.648 3.48 1.945.922-1.297 2.219-1.945 3.891-1.945 1.398 0 2.439.387 3.123 1.16.683.774 1.033 1.914 1.049 3.422V88.5h-2.848v-8.25c0-.805-.176-1.395-.527-1.77-.352-.375-.934-.562-1.747-.562-.648 0-1.177.174-1.587.521-.411.348-.698.803-.862 1.366l.012 8.695h-2.848v-8.344c-.039-1.492-.8-2.238-2.285-2.238-1.14 0-1.949.465-2.426 1.395V88.5h-2.847V75.82zM418.4 72.738v3.082h2.238v2.11H418.4v7.078c0 .484.096.834.287 1.049.191.214.533.322 1.025.322.328 0 .66-.039.996-.117v2.203c-.648.18-1.273.269-1.875.269-2.187 0-3.281-1.207-3.281-3.621V77.93h-2.086v-2.11h2.086v-3.082zm-9.088 12.317c0-.508-.209-.895-.627-1.16-.418-.266-1.111-.5-2.08-.704-.969-.203-1.777-.461-2.426-.773-1.421-.688-2.132-1.684-2.132-2.988 0-1.094.461-2.008 1.382-2.742.922-.735 2.094-1.102 3.516-1.102 1.516 0 2.74.375 3.674 1.125.933.75 1.4 1.723 1.4 2.918h-2.847c0-.547-.204-1.002-.61-1.365-.406-.364-.945-.545-1.617-.545-.625 0-1.135.144-1.529.433-.395.289-.592.676-.592 1.161 0 .437.184.777.551 1.019.367.242 1.109.486 2.226.732 1.117.247 1.994.54 2.631.879.637.34 1.109.748 1.418 1.225.309.477.463 1.055.463 1.734 0 1.141-.473 2.065-1.418 2.772-.945.707-2.184 1.06-3.715 1.06-1.039 0-1.965-.187-2.777-.562-.813-.375-1.445-.891-1.899-1.547-.453-.656-.679-1.363-.679-2.121h2.765c.039.672.293 1.189.762 1.553.469.363 1.09.545 1.863.545.75 0 1.321-.143 1.711-.428.391-.285.586-.658.586-1.119zM396.557 88.5c-.125-.242-.235-.637-.329-1.184-.906.946-2.015 1.418-3.328 1.418-1.273 0-2.312-.363-3.117-1.089-.805-.727-1.207-1.625-1.207-2.696 0-1.351.502-2.388 1.506-3.111 1.004-.723 2.439-1.084 4.307-1.084h1.746v-.832c0-.656-.184-1.182-.551-1.576-.367-.395-.926-.592-1.676-.592-.648 0-1.18.162-1.594.486-.414.324-.621.737-.621 1.237h-2.847c0-.696.23-1.346.691-1.952.461-.605 1.088-1.08 1.881-1.423.793-.344 1.678-.516 2.654-.516 1.485 0 2.668.373 3.551 1.119s1.336 1.795 1.359 3.147v5.718c0 1.141.161 2.051.481 2.731v.199zm-3.129-2.051c.562 0 1.091-.136 1.588-.41.496-.273.869-.641 1.119-1.101v-2.391H394.6c-1.055 0-1.848.183-2.379.551-.532.367-.797.886-.797 1.558 0 .547.181.983.545 1.307.363.324.849.486 1.459.486zm-12.041.012c.711 0 1.301-.207 1.769-.621.469-.414.719-.926.75-1.535h2.684c-.031.789-.277 1.525-.738 2.209-.461.683-1.086 1.224-1.875 1.623-.789.398-1.641.597-2.555.597-1.773 0-3.18-.574-4.219-1.722-1.039-1.149-1.558-2.735-1.558-4.758v-.293c0-1.93.515-3.475 1.547-4.635 1.031-1.16 2.437-1.74 4.218-1.74 1.508 0 2.737.439 3.686 1.318.949.879 1.447 2.033 1.494 3.463h-2.684c-.031-.726-.279-1.324-.744-1.793-.465-.469-1.056-.703-1.775-.703-.922 0-1.633.334-2.133 1.002-.5.668-.754 1.682-.762 3.041v.457c0 1.375.248 2.4.745 3.076.496.676 1.212 1.014 2.15 1.014zm-19.529-4.395c0-1.953.453-3.521 1.359-4.705.906-1.183 2.121-1.775 3.645-1.775 1.344 0 2.429.469 3.258 1.406V70.5h2.847v18h-2.578l-.141-1.312c-.851 1.031-1.988 1.546-3.41 1.546-1.484 0-2.685-.597-3.603-1.793-.918-1.195-1.377-2.82-1.377-4.875zm2.848.247c0 1.289.248 2.294.744 3.017.496.723 1.201 1.084 2.115 1.084 1.164 0 2.016-.519 2.555-1.559v-5.414c-.524-1.015-1.368-1.523-2.532-1.523-.922 0-1.632.365-2.132 1.096-.5.73-.75 1.83-.75 3.299zm-16.752-.27c0-1.242.246-2.361.738-3.357.492-.997 1.184-1.762 2.074-2.297.891-.535 1.914-.803 3.071-.803 1.711 0 3.099.551 4.166 1.652 1.066 1.102 1.642 2.563 1.728 4.383l.012.668c0 1.25-.24 2.367-.721 3.352-.48.984-1.168 1.746-2.062 2.285-.895.539-1.928.808-3.1.808-1.789 0-3.221-.595-4.295-1.787-1.074-1.191-1.611-2.779-1.611-4.763zm2.847.246c0 1.305.27 2.326.809 3.065.539.738 1.289 1.107 2.25 1.107.961 0 1.709-.375 2.244-1.125.535-.75.803-1.848.803-3.293 0-1.281-.275-2.297-.826-3.047-.551-.75-1.299-1.125-2.244-1.125-.93 0-1.668.369-2.215 1.108-.547.738-.821 1.841-.821 3.31zm-4.962 0c0 1.961-.446 3.525-1.336 4.693-.891 1.168-2.086 1.752-3.586 1.752-1.391 0-2.504-.457-3.34-1.371v6.012h-2.848V75.82h2.625l.118 1.289c.835-1.015 1.972-1.523 3.41-1.523 1.547 0 2.759.576 3.638 1.728.879 1.153 1.319 2.752 1.319 4.799zm-2.836-.246c0-1.266-.252-2.27-.756-3.012s-1.225-1.113-2.162-1.113c-1.164 0-2 .48-2.508 1.441v5.625c.516.985 1.359 1.477 2.531 1.477.907 0 1.616-.365 2.127-1.096.512-.73.768-1.838.768-3.322zm-16.523-3.621c-.375-.063-.762-.094-1.16-.094-1.305 0-2.184.5-2.637 1.5V88.5h-2.848V75.82h2.719l.07 1.418c.688-1.101 1.641-1.652 2.86-1.652.406 0 .742.055 1.008.164zm-21.076 3.621c0-1.242.246-2.361.738-3.357.492-.997 1.184-1.762 2.074-2.297.891-.535 1.914-.803 3.071-.803 1.711 0 3.099.551 4.166 1.652 1.066 1.102 1.642 2.563 1.728 4.383l.012.668c0 1.25-.24 2.367-.721 3.352-.48.984-1.168 1.746-2.062 2.285-.895.539-1.928.808-3.1.808-1.789 0-3.221-.595-4.295-1.787-1.074-1.191-1.611-2.779-1.611-4.763zm2.848.246c0 1.305.269 2.326.808 3.065.539.738 1.289 1.107 2.25 1.107.961 0 1.709-.375 2.244-1.125.535-.75.803-1.848.803-3.293 0-1.281-.275-2.297-.826-3.047-.551-.75-1.299-1.125-2.244-1.125-.93 0-1.668.369-2.215 1.108-.547.738-.82 1.841-.82 3.31zM298.191 88.5V77.93h-1.933v-2.11h1.933v-1.16c0-1.406.391-2.492 1.172-3.258.781-.765 1.875-1.148 3.281-1.148.5 0 1.032.07 1.594.211l-.07 2.226c-.313-.062-.676-.093-1.09-.093-1.359 0-2.039.699-2.039 2.097v1.125h2.578v2.11h-2.578V88.5zm-18.163-12.68l.082 1.465c.937-1.133 2.168-1.699 3.691-1.699 2.641 0 3.984 1.512 4.031 4.535V88.5h-2.847v-8.215c0-.805-.174-1.4-.522-1.787-.347-.387-.916-.58-1.705-.58-1.148 0-2.004.519-2.566 1.559V88.5h-2.848V75.82zm-5.983 12.68h-2.847V75.82h2.847zm-3.023-15.973c0-.437.139-.8.416-1.089.277-.29.674-.434 1.19-.434.515 0 .914.144 1.195.434.281.289.422.652.422 1.089 0 .43-.141.787-.422 1.073-.281.285-.68.427-1.195.427-.516 0-.913-.142-1.19-.427-.277-.286-.416-.643-.416-1.073zm-14.349 9.539c0-1.968.463-3.541 1.388-4.716.926-1.176 2.155-1.764 3.686-1.764 1.445 0 2.582.504 3.41 1.512l.129-1.278h2.566v12.293c0 1.664-.517 2.977-1.552 3.938-1.036.961-2.432 1.441-4.19 1.441-.93 0-1.838-.193-2.724-.58-.887-.387-1.561-.892-2.022-1.517l1.348-1.711c.875 1.039 1.953 1.558 3.234 1.558.945 0 1.692-.256 2.238-.767.547-.512.821-1.264.821-2.256v-.856c-.821.914-1.914 1.371-3.282 1.371-1.484 0-2.697-.589-3.638-1.769-.942-1.18-1.412-2.813-1.412-4.899zm2.836.247c0 1.273.259 2.275.779 3.005.519.731 1.24 1.096 2.162 1.096 1.148 0 2-.492 2.555-1.476v-5.579c-.539-.961-1.383-1.441-2.532-1.441-.937 0-1.666.371-2.185 1.113-.52.742-.779 1.836-.779 3.282zm-8.233 4.945c-.836.984-2.023 1.476-3.562 1.476-1.375 0-2.416-.402-3.123-1.207-.707-.804-1.061-1.968-1.061-3.492V75.82h2.848V84c0 1.609.668 2.414 2.004 2.414 1.383 0 2.316-.496 2.801-1.488V75.82h2.847V88.5h-2.683zM240.255 88.5h-2.847v-18h2.847zm-5.677-6.211c0 1.961-.446 3.525-1.336 4.693-.891 1.168-2.086 1.752-3.586 1.752-1.391 0-2.504-.457-3.34-1.371v6.012h-2.848V75.82h2.625l.117 1.289c.836-1.015 1.973-1.523 3.411-1.523 1.547 0 2.759.576 3.638 1.728.879 1.153 1.319 2.752 1.319 4.799zm-2.836-.246c0-1.266-.252-2.27-.756-3.012s-1.225-1.113-2.162-1.113c-1.164 0-2 .48-2.508 1.441v5.625c.516.985 1.359 1.477 2.531 1.477.906 0 1.615-.365 2.127-1.096.512-.73.768-1.838.768-3.322zm-20.004 3.012c0-.508-.209-.895-.627-1.16-.418-.266-1.111-.5-2.08-.704-.968-.203-1.777-.461-2.426-.773-1.421-.688-2.132-1.684-2.132-2.988 0-1.094.461-2.008 1.382-2.742.922-.735 2.094-1.102 3.516-1.102 1.516 0 2.74.375 3.674 1.125.934.75 1.4 1.723 1.4 2.918h-2.847c0-.547-.203-1.002-.61-1.365-.406-.364-.945-.545-1.617-.545-.625 0-1.135.144-1.529.433-.395.289-.592.676-.592 1.161 0 .437.184.777.551 1.019.367.242 1.109.486 2.226.732 1.118.247 1.994.54 2.631.879.637.34 1.11.748 1.418 1.225.309.477.463 1.055.463 1.734 0 1.141-.473 2.065-1.418 2.772-.945.707-2.183 1.06-3.715 1.06-1.039 0-1.965-.187-2.777-.562-.813-.375-1.445-.891-1.899-1.547-.453-.656-.679-1.363-.679-2.121h2.765c.039.672.293 1.189.762 1.553.469.363 1.09.545 1.863.545.75 0 1.321-.143 1.711-.428.391-.285.586-.658.586-1.119zm-12.626 0c0-.508-.209-.895-.627-1.16-.418-.266-1.112-.5-2.08-.704-.969-.203-1.778-.461-2.426-.773-1.422-.688-2.133-1.684-2.133-2.988 0-1.094.461-2.008 1.383-2.742.922-.735 2.093-1.102 3.515-1.102 1.516 0 2.741.375 3.674 1.125.934.75 1.401 1.723 1.401 2.918h-2.848c0-.547-.203-1.002-.609-1.365-.407-.364-.946-.545-1.618-.545-.625 0-1.134.144-1.529.433-.394.289-.592.676-.592 1.161 0 .437.184.777.551 1.019.367.242 1.109.486 2.227.732 1.117.247 1.994.54 2.63.879.637.34 1.11.748 1.418 1.225.309.477.463 1.055.463 1.734 0 1.141-.472 2.065-1.418 2.772-.945.707-2.183 1.06-3.714 1.06-1.04 0-1.965-.187-2.778-.562-.812-.375-1.445-.891-1.898-1.547-.453-.656-.68-1.363-.68-2.121h2.766c.039.672.293 1.189.761 1.553.469.363 1.09.545 1.864.545.75 0 1.32-.143 1.711-.428.39-.285.586-.658.586-1.119zm-14.643 3.679c-1.804 0-3.267-.568-4.388-1.705-1.122-1.136-1.682-2.65-1.682-4.541v-.351c0-1.266.244-2.397.732-3.393.489-.996 1.174-1.771 2.057-2.326.883-.555 1.867-.832 2.953-.832 1.727 0 3.061.551 4.002 1.652.941 1.102 1.412 2.66 1.412 4.676v1.149h-8.285c.086 1.046.436 1.875 1.049 2.484s1.385.914 2.314.914c1.305 0 2.367-.527 3.188-1.582l1.535 1.465c-.508.758-1.186 1.345-2.033 1.763-.848.418-1.799.627-2.854.627zm-.34-10.863c-.781 0-1.412.274-1.892.82-.481.547-.787 1.309-.92 2.286h5.426v-.211c-.063-.954-.317-1.674-.762-2.162-.445-.489-1.063-.733-1.852-.733zm-7.06.551c-.375-.063-.762-.094-1.16-.094-1.305 0-2.184.5-2.637 1.5V88.5h-2.847V75.82h2.718l.071 1.418c.687-1.101 1.64-1.652 2.859-1.652.406 0 .742.055 1.008.164zm-18.978 3.738v6.34h-2.965V71.438h6.527c1.907 0 3.42.496 4.541 1.488 1.121.992 1.682 2.304 1.682 3.937 0 1.672-.549 2.973-1.647 3.903-1.097.929-2.634 1.394-4.611 1.394zm0-2.379h3.562c1.055 0 1.86-.248 2.414-.744.555-.496.832-1.213.832-2.15 0-.922-.281-1.658-.843-2.209-.563-.551-1.336-.834-2.321-.85h-3.644zm-17.561 2.285c0-1.953.454-3.521 1.36-4.705.906-1.183 2.121-1.775 3.644-1.775 1.344 0 2.43.469 3.258 1.406V70.5h2.848v18h-2.578l-.141-1.312c-.851 1.031-1.988 1.546-3.41 1.546-1.484 0-2.686-.597-3.604-1.793-.918-1.195-1.377-2.82-1.377-4.875zm2.848.247c0 1.289.248 2.294.744 3.017.496.723 1.201 1.084 2.116 1.084 1.164 0 2.015-.519 2.554-1.559v-5.414c-.523-1.015-1.367-1.523-2.531-1.523-.922 0-1.633.365-2.133 1.096-.5.73-.75 1.83-.75 3.299zm-4.131-3.891c-.375-.063-.761-.094-1.16-.094-1.304 0-2.183.5-2.636 1.5V88.5h-2.848V75.82h2.719l.07 1.418c.688-1.101 1.641-1.652 2.859-1.652.407 0 .743.055 1.008.164zm-21.075 3.621c0-1.242.246-2.361.738-3.357.492-.997 1.183-1.762 2.074-2.297.891-.535 1.914-.803 3.07-.803 1.711 0 3.1.551 4.166 1.652 1.067 1.102 1.643 2.563 1.729 4.383l.012.668c0 1.25-.241 2.367-.721 3.352-.481.984-1.168 1.746-2.063 2.285-.894.539-1.927.808-3.099.808-1.789 0-3.221-.595-4.295-1.787-1.074-1.191-1.611-2.779-1.611-4.763zm2.847.246c0 1.305.27 2.326.809 3.065.539.738 1.289 1.107 2.25 1.107.961 0 1.709-.375 2.244-1.125.535-.75.803-1.848.803-3.293 0-1.281-.276-2.297-.826-3.047-.551-.75-1.299-1.125-2.245-1.125-.929 0-1.668.369-2.214 1.108-.547.738-.821 1.841-.821 3.31zm-9.65 1.992l2.625-12.843h2.941L112.998 88.5h-2.836l-3.246-12.457L103.6 88.5h-2.848l-3.938-17.062h2.942l2.648 12.82 3.258-12.82h2.484zm459.095-27.853c-1.628.691-3.49 1.332-5.587 1.924-2.097.592-4.206.888-6.327.888-1.48 0-2.874-.185-4.181-.555-1.307-.37-2.454-.962-3.441-1.776-.987-.814-1.764-1.887-2.331-3.219-.567-1.332-.851-2.935-.851-4.81V28.604h-4.958V19.65h4.958V7.292h11.84V19.65h7.918v8.954h-7.918V44.81c0 1.283.321 2.208.962 2.775.641.567 1.455.851 2.442.851.888 0 1.801-.148 2.738-.444.937-.296 1.751-.617 2.442-.962zm-45.14 2.072V19.65h11.84V58.5zm0-43.29V4.48h11.84v10.73zM476.04 58.5V5.96h12.136v22.644l19.24-22.644h13.616l-19.684 23.458L522.364 58.5h-13.838l-14.874-21.164-5.476 5.698V58.5zm-21.386-28.712c-2.861.049-5.451.518-7.77 1.406-2.319.888-3.996 2.22-5.032 3.996V58.5h-11.84V19.65h10.878v7.844c1.332-2.615 3.046-4.662 5.143-6.142 2.097-1.48 4.329-2.245 6.697-2.294h1.184c.247 0 .493.025.74.074zM403.89 59.24c-3.256 0-6.179-.53-8.769-1.591s-4.785-2.504-6.586-4.329c-1.801-1.825-3.17-3.934-4.107-6.327-.937-2.393-1.406-4.896-1.406-7.511 0-2.812.469-5.464 1.406-7.955.937-2.491 2.294-4.674 4.07-6.549 1.776-1.875 3.959-3.355 6.549-4.44 2.59-1.085 5.538-1.628 8.843-1.628 3.305 0 6.241.543 8.806 1.628 2.565 1.085 4.736 2.553 6.512 4.403 1.776 1.85 3.12 3.984 4.033 6.401.913 2.417 1.369 4.958 1.369 7.622 0 .691-.025 1.369-.074 2.035-.049.666-.123 1.246-.222 1.739h-28.712c.197 2.615 1.147 4.6 2.849 5.957 1.702 1.357 3.638 2.035 5.809 2.035 1.727 0 3.392-.419 4.995-1.258 1.603-.839 2.676-1.973 3.219-3.404l10.064 2.812c-1.529 3.059-3.897 5.55-7.104 7.474-3.207 1.924-7.055 2.886-11.544 2.886zm8.214-23.828c-.247-2.467-1.135-4.415-2.664-5.846-1.529-1.431-3.429-2.146-5.698-2.146-2.319 0-4.23.728-5.735 2.183-1.505 1.455-2.38 3.392-2.627 5.809zM381.69 56.428c-1.628.691-3.49 1.332-5.587 1.924-2.097.592-4.206.888-6.327.888-1.48 0-2.874-.185-4.181-.555-1.307-.37-2.454-.962-3.441-1.776-.987-.814-1.764-1.887-2.331-3.219-.567-1.332-.851-2.935-.851-4.81V28.604h-4.958V19.65h4.958V7.292h11.84V19.65h7.918v8.954h-7.918V44.81c0 1.283.321 2.208.962 2.775.641.567 1.455.851 2.442.851.888 0 1.801-.148 2.738-.444.937-.296 1.751-.617 2.442-.962zm-46.768 2.812c-3.305 0-6.561-.53-9.768-1.591-3.207-1.061-5.92-2.602-8.14-4.625l4.218-7.252c2.368 1.628 4.674 2.886 6.919 3.774 2.245.888 4.403 1.332 6.475 1.332 1.529 0 2.713-.271 3.552-.814.839-.543 1.258-1.332 1.258-2.368 0-1.036-.53-1.862-1.591-2.479s-2.923-1.27-5.587-1.961c-2.615-.74-4.822-1.455-6.623-2.146-1.801-.691-3.268-1.455-4.403-2.294-1.135-.839-1.949-1.801-2.442-2.886-.493-1.085-.74-2.368-.74-3.848 0-1.973.395-3.774 1.184-5.402.789-1.628 1.875-3.009 3.256-4.144 1.381-1.135 3.022-2.023 4.921-2.664 1.899-.641 3.959-.962 6.179-.962 2.911 0 5.636.395 8.177 1.184 2.541.789 4.995 2.22 7.363 4.292l-4.588 7.104c-2.22-1.529-4.193-2.639-5.92-3.33-1.727-.691-3.404-1.036-5.032-1.036-1.283 0-2.368.259-3.256.777-.888.518-1.332 1.344-1.332 2.479 0 1.085.481 1.899 1.443 2.442.962.543 2.75 1.135 5.365 1.776 2.763.74 5.094 1.48 6.993 2.22 1.899.74 3.441 1.566 4.625 2.479 1.184.913 2.047 1.961 2.59 3.145.543 1.184.814 2.59.814 4.218 0 3.848-1.431 6.907-4.292 9.176-2.861 2.269-6.734 3.404-11.618 3.404zm-47.656 0c-1.924 0-3.712-.308-5.365-.925s-3.071-1.48-4.255-2.59c-1.184-1.11-2.121-2.417-2.812-3.922-.691-1.505-1.036-3.145-1.036-4.921 0-1.924.407-3.675 1.221-5.254.814-1.579 1.961-2.935 3.441-4.07 1.48-1.135 3.231-2.023 5.254-2.664 2.023-.641 4.267-.962 6.734-.962 1.628 0 3.207.136 4.736.407 1.529.271 2.861.678 3.996 1.221v-1.776c0-4.489-2.59-6.734-7.77-6.734-2.121 0-4.144.358-6.068 1.073-1.924.715-3.947 1.788-6.068 3.219l-3.478-7.4c2.565-1.677 5.229-2.935 7.992-3.774s5.698-1.258 8.806-1.258c5.871 0 10.409 1.381 13.616 4.144 3.207 2.763 4.81 6.808 4.81 12.136v9.99c0 1.184.185 2.01.555 2.479.37.469 1.024.752 1.961.851v9.99c-1.036.247-1.973.407-2.812.481-.839.074-1.603.111-2.294.111-2.22 0-3.897-.432-5.032-1.295-1.135-.863-1.85-2.084-2.146-3.663l-.222-1.776c-1.727 2.22-3.786 3.922-6.179 5.106-2.393 1.184-4.921 1.776-7.585 1.776zm3.478-8.51c1.283 0 2.528-.222 3.737-.666 1.209-.444 2.208-1.036 2.997-1.776 1.135-.888 1.702-1.825 1.702-2.812v-3.7c-1.036-.395-2.158-.703-3.367-.925-1.209-.222-2.331-.333-3.367-.333-2.171 0-3.959.493-5.365 1.48-1.406.987-2.109 2.269-2.109 3.848 0 1.431.543 2.602 1.628 3.515 1.085.913 2.467 1.369 4.144 1.369zm-58.978-11.692c0-2.664.469-5.217 1.406-7.659.937-2.442 2.294-4.588 4.07-6.438 1.776-1.85 3.959-3.318 6.549-4.403 2.59-1.085 5.538-1.628 8.843-1.628 4.489 0 8.263.95 11.322 2.849 3.059 1.899 5.353 4.378 6.882 7.437l-11.544 3.478c-1.529-2.467-3.774-3.7-6.734-3.7-2.467 0-4.526.913-6.179 2.738-1.653 1.825-2.479 4.267-2.479 7.326 0 1.529.222 2.923.666 4.181.444 1.258 1.061 2.331 1.85 3.219.789.888 1.714 1.579 2.775 2.072 1.061.493 2.183.74 3.367.74 1.48 0 2.837-.358 4.07-1.073s2.146-1.64 2.738-2.775l11.544 3.552c-1.431 3.009-3.712 5.476-6.845 7.4-3.133 1.924-6.944 2.886-11.433 2.886-3.256 0-6.179-.555-8.769-1.665-2.59-1.11-4.785-2.59-6.586-4.44-1.801-1.85-3.17-3.996-4.107-6.438-.937-2.442-1.406-4.995-1.406-7.659zm-29.97 20.202c-2.664 0-5.118-.506-7.363-1.517s-4.181-2.43-5.809-4.255c-1.628-1.825-2.898-3.959-3.811-6.401-.913-2.442-1.369-5.118-1.369-8.029 0-2.812.419-5.451 1.258-7.918.839-2.467 2.023-4.6 3.552-6.401 1.529-1.801 3.342-3.219 5.439-4.255s4.403-1.554 6.919-1.554c2.713 0 5.168.641 7.363 1.924 2.195 1.283 3.885 3.009 5.069 5.18V4.48h11.84v40.7c0 1.184.185 2.01.555 2.479.37.469 1.024.752 1.961.851v9.99c-1.085.247-2.023.407-2.812.481-.789.074-1.529.111-2.22.111-2.072 0-3.749-.432-5.032-1.295s-2.023-2.109-2.22-3.737l-.222-1.998c-1.381 2.417-3.244 4.218-5.587 5.402-2.343 1.184-4.847 1.776-7.511 1.776zm3.182-9.99c1.628 0 3.194-.481 4.699-1.443 1.505-.962 2.652-2.282 3.441-3.959v-8.14c-.74-1.973-1.936-3.589-3.589-4.847-1.653-1.258-3.367-1.887-5.143-1.887-1.283 0-2.454.284-3.515.851s-1.986 1.32-2.775 2.257c-.789.937-1.394 2.023-1.813 3.256-.419 1.233-.629 2.541-.629 3.922 0 1.431.234 2.763.703 3.996s1.11 2.294 1.924 3.182c.814.888 1.801 1.579 2.96 2.072 1.159.493 2.405.74 3.737.74zm-45.954 9.99c-3.305 0-6.253-.543-8.843-1.628s-4.773-2.553-6.549-4.403c-1.776-1.85-3.12-3.996-4.033-6.438-.913-2.442-1.369-4.995-1.369-7.659 0-2.664.456-5.217 1.369-7.659s2.257-4.588 4.033-6.438c1.776-1.85 3.959-3.33 6.549-4.44 2.59-1.11 5.538-1.665 8.843-1.665 3.305 0 6.241.555 8.806 1.665 2.565 1.11 4.736 2.59 6.512 4.44 1.776 1.85 3.133 3.996 4.07 6.438.937 2.442 1.406 4.995 1.406 7.659 0 2.664-.456 5.217-1.369 7.659s-2.257 4.588-4.033 6.438c-1.776 1.85-3.959 3.318-6.549 4.403-2.59 1.085-5.538 1.628-8.843 1.628zm-8.658-20.128c0 3.059.814 5.513 2.442 7.363 1.628 1.85 3.7 2.775 6.216 2.775 1.233 0 2.368-.247 3.404-.74s1.936-1.184 2.701-2.072c.765-.888 1.369-1.961 1.813-3.219.444-1.258.666-2.627.666-4.107 0-3.059-.814-5.513-2.442-7.363-1.628-1.85-3.675-2.775-6.142-2.775-1.233 0-2.38.247-3.441.74s-1.973 1.184-2.738 2.072c-.765.888-1.369 1.961-1.813 3.219-.444 1.258-.666 2.627-.666 4.107zM96.05 58.5V5.96h22.422c2.516 0 4.822.518 6.919 1.554 2.097 1.036 3.897 2.393 5.402 4.07 1.505 1.677 2.689 3.577 3.552 5.698.863 2.121 1.295 4.267 1.295 6.438 0 2.319-.407 4.539-1.221 6.66-.814 2.121-1.949 4.021-3.404 5.698-1.455 1.677-3.219 3.009-5.291 3.996-2.072.987-4.366 1.48-6.882 1.48h-10.656V58.5zm12.136-27.528h9.916c1.431 0 2.664-.617 3.7-1.85s1.554-3.034 1.554-5.402c0-1.233-.16-2.294-.481-3.182-.321-.888-.752-1.628-1.295-2.22-.543-.592-1.159-1.024-1.85-1.295-.691-.271-1.381-.407-2.072-.407h-9.472zm-78.323 56.52v-4.017c0-1.832 1.485-3.317 3.318-3.317h6.112V67.06h-2.096c-8.198 0-14.844-6.646-14.844-14.844V39.118h3.493v3.668h5.737v3.667h-5.737v5.763c0 6.172 5.004 11.177 11.177 11.177h11.351c6.173 0 11.176-5.005 11.176-11.177v-5.763h-5.581v-3.667h5.581v-3.668h3.668v13.098c0 8.198-6.646 14.844-14.844 14.844h-1.747v13.098h5.938c1.833 0 3.318 1.485 3.318 3.317v4.017zM10.827 68.806c-1.929 0-3.492-1.564-3.492-3.493v-.174H3.493C1.564 65.139 0 63.575 0 61.646v-7.684c0-1.929 1.564-3.492 3.493-3.492H7.335v-.524c0-1.929 1.563-3.493 3.492-3.493h.175V30.736h.004C11.244 13.721 25.342 0 42.698 0c17.357 0 31.455 13.721 31.693 30.736h.004v15.717h.349c1.929 0 3.492 1.564 3.492 3.493v.349H82.079c1.929 0 3.492 1.564 3.492 3.492v7.685c0 1.928-1.563 3.492-3.492 3.492h-3.843v.349c0 1.929-1.563 3.493-3.492 3.493h-.524c-.178 0-.353-.013-.524-.039v.039h-4.715V46.453h1.746V31.085h-.001c-.033-5.238-1.544-10.13-4.142-14.29-.008.005-.014.01-.022.015.017.026.035.052.052.078.07.106-.371.435-.951.575-.769.187-1.747.175-1.747.175l-2.444-.349c-.729-.39-1.47-.492-2.096-.873-.766-.467-1.399-1.217-2.096-1.747-4.876-3.706-8.909-5.413-14.501-5.413-6.246 0-11.423 2.682-15.885 6.636-.727.643-2.554 1.272-3.493 1.571l-1.051.175h-1.166s-1.904-.373-2.325-.634c-2.52 4.114-3.982 8.93-4.014 14.081h-.001v15.368h1.746v22.353h-4.715zm62.869-22.314c.171-.025.346-.039.524-.039h-.524z"/><path d="M39.642 57.63c-4.436 0-8.033-3.597-8.033-8.033v-3.144h-.026v-3.667h.026V32.133c0-4.437 3.597-8.033 8.033-8.033h6.287c4.436 0 8.033 3.596 8.033 8.033v10.653h.007v3.667h-.007v3.144c0 4.436-3.597 8.033-8.033 8.033h-6.287zm2.18-3.287h1.927v-3.242c.895-.037 1.747-.176 2.557-.418.811-.242 1.528-.601 2.152-1.076.624-.475 1.122-1.085 1.494-1.83.373-.746.559-1.649.559-2.711 0-.912-.144-1.695-.433-2.347-.288-.652-.698-1.206-1.229-1.662-.531-.457-1.178-.839-1.942-1.146-.764-.307-1.62-.591-2.57-.852l-.895-.223v-3.801c.522.075 1.039.201 1.551.378s.978.363 1.397.559c.419.195.764.377 1.034.544.27.168.433.289.489.363l2.012-3.8c-.782-.447-1.705-.884-2.767-1.313-1.061-.428-2.198-.698-3.409-.81v-2.822h-1.927v2.822c-.894.093-1.728.293-2.501.6-.773.308-1.444.732-2.012 1.272-.568.54-1.02 1.187-1.355 1.942-.335.754-.503 1.616-.503 2.585 0 .745.107 1.396.321 1.955.215.559.54 1.053.978 1.481.438.429.992.806 1.663 1.132.671.326 1.462.629 2.375.908l1.341.391v3.716c-.671-.093-1.323-.246-1.956-.46-.633-.215-1.202-.438-1.705-.671-.503-.233-.917-.457-1.243-.671-.326-.214-.526-.368-.6-.461l-2.012 3.996c1.005.67 2.137 1.211 3.395 1.62 1.257.41 2.528.671 3.814.783v3.269zm1.62-7.349v-3.353c.652.224 1.174.471 1.565.741s.587.647.587 1.131c0 .932-.718 1.425-2.152 1.481zm-1.313-8.55c-.652-.205-1.141-.442-1.467-.712-.326-.27-.489-.638-.489-1.104 0-.969.652-1.509 1.956-1.621v3.437z" fill="#47bc00"/></svg>